
<svg xmlns="http://www.w3.org/2000/svg" viewBox="0 0 512 512" width="512" height="512"><g id="Filled_Outline" data-name="Filled Outline"><rect x="97.608" y="154.177" width="316.784" height="203.647" transform="translate(-106.039 256) rotate(-45)" style="fill:#60d1e0"/><path d="M440,216,216,440l-93.58-93.58c92.69-39.76,189.64-99.58,262.14-185.86Z" style="fill:#5ac6d4"/><path d="M408.8,16a86.626,86.626,0,0,0-61.657,25.539L312,76.686,301.657,66.343a8,8,0,0,0-11.314,0l-224,224a8,8,0,0,0,0,11.314L76.686,312,41.539,347.146A87.2,87.2,0,0,0,164.853,470.461L200,435.314l10.343,10.343a8,8,0,0,0,11.314,0l224-224a8,8,0,0,0,0-11.314L435.314,200l35.147-35.146A87.2,87.2,0,0,0,408.8,16ZM296,83.313,324.686,112,112,324.686,83.314,296ZM155.314,368,368,155.314,388.686,176,176,388.686ZM144,356.686,123.314,336,336,123.314,356.686,144Zm9.539,102.46A71.2,71.2,0,1,1,52.853,358.461L88,323.314,188.686,424ZM216,428.687,187.314,400,400,187.314,428.686,216ZM459.147,153.539,424,188.686,323.314,88l35.147-35.146A71.2,71.2,0,1,1,459.147,153.539Z"/></g></svg>
