<svg id="Capa_1" enable-background="new 0 0 511.991 511.991" height="512" viewBox="0 0 511.991 511.991" width="512" xmlns="http://www.w3.org/2000/svg"><g><g><path d="m262.758 397.582 67.12-67.12 105.815 105.625c-72.117 72.117-224.447 90.59-341.648-26.611-116.172-116.173-98.918-269.531-26.8-341.649l105.625 105.625-67.12 67.12z" fill="#b2daff"/><g fill="#868eaf"><path d="m67.245 67.827s21.493-25.952 57.978-40.815c18.608-7.58 39.894.857 48.305 19.105l39.969 86.707-21.863 21.863-18.764 18.764z"/><path d="m435.694 436.087s25.762-21.493 40.625-57.978c7.58-18.608-.857-39.894-19.105-48.305l-86.707-39.969-21.863 21.863-18.764 18.764z"/></g></g><g><g><path d="m461.4 320.722-86.708-39.97c-3.804-1.753-8.296-.951-11.258 2.011l-40.622 40.622c-.002.002-.003.003-.005.005l-60.049 60.05-142.866-142.868 60.049-60.049.005-.005 40.623-40.622c2.961-2.961 3.764-7.454 2.011-11.258l-39.97-86.708c-10.684-23.177-37.548-33.799-61.159-24.179-36.596 14.908-58.825 40.074-61.623 43.36-34.651 34.852-56.306 86.599-59.427 142.071-2.437 43.32 5.073 109.083 54.687 176.37 3.278 4.446 9.539 5.392 13.983 2.114 4.445-3.277 5.392-9.538 2.114-13.983-46.08-62.494-53.068-123.34-50.815-163.378 2.645-47.019 19.678-90.915 47.103-122.106l91.254 91.254-60.049 60.049c-3.905 3.905-3.905 10.237 0 14.143l157.009 157.01c1.875 1.875 4.419 2.929 7.071 2.929s5.196-1.054 7.071-2.929l60.056-60.057 91.435 91.272c-31.871 28.094-76.575 45.333-124.312 47.655-40.829 1.979-102.781-5.915-166.062-54.83-4.371-3.379-10.651-2.574-14.028 1.797-3.377 4.369-2.573 10.649 1.796 14.027 62.069 47.978 123.195 59.279 166.994 59.279 4.259 0 8.355-.106 12.271-.297 56.226-2.734 108.835-24.599 144.436-60.003 3.183-2.727 28.234-24.967 43.164-61.616 9.619-23.612-1.001-50.477-24.179-61.16zm-332.404-284.448c13.686-5.573 29.255.589 35.451 14.03l37.052 80.379-28.629 28.627-91.648-91.648c8.459-8.163 25.097-22.151 47.774-31.388zm338.062 338.062c-9.228 22.652-23.112 39.281-31.23 47.754l-91.8-91.635 28.622-28.622 80.378 37.053c13.441 6.195 19.604 21.767 14.03 35.45z"/><path d="m101.04 403.391c-1.642-3.939-5.707-6.464-9.971-6.145-4.347.325-8.054 3.524-9.015 7.776-1.971 8.724 8.185 15.51 15.508 10.366 3.78-2.655 5.255-7.73 3.478-11.997z"/><path d="m300.819 119.833c26.166 0 50.775 10.197 69.292 28.714 17.758 17.757 27.937 41.35 28.662 66.432.156 5.422 4.601 9.711 9.99 9.711.098 0 .196-.001.294-.004 5.521-.16 9.866-4.765 9.707-10.285-.873-30.205-13.129-58.614-34.511-79.996-22.295-22.295-51.923-34.571-83.434-34.571-.013 0-.029 0-.042 0-5.523.002-9.999 4.48-9.997 10.004.002 5.521 4.479 9.996 10 9.996.019.008.025 0 .039-.001z"/><path d="m445.629 74.657c-42.849-42.849-99.833-66.453-160.455-66.463-.001 0-.001 0-.002 0-5.522 0-9.999 4.476-10 9.998-.001 5.523 4.476 10.001 9.998 10.002 55.281.01 107.244 21.533 146.316 60.606 37.476 37.476 58.965 87.268 60.509 140.206.158 5.421 4.602 9.708 9.99 9.708.099 0 .198-.001.297-.004 5.521-.161 9.865-4.768 9.704-10.288-1.693-58.059-25.259-112.666-66.357-153.765z"/></g></g></g></svg>